<?xml version="1.0" encoding="UTF-8" standalone="no"?>
<svg
   xmlns:dc="http://purl.org/dc/elements/1.1/"
   xmlns:cc="http://creativecommons.org/ns#"
   xmlns:rdf="http://www.w3.org/1999/02/22-rdf-syntax-ns#"
   xmlns:svg="http://www.w3.org/2000/svg"
   xmlns="http://www.w3.org/2000/svg"
   viewBox="0 0 464.66666 240.92267"
   height="240.92267"
   width="464.66666"
   xml:space="preserve"
   id="svg2"
   version="1.1"><metadata
     id="metadata8"><rdf:RDF><cc:Work
         rdf:about=""><dc:format>image/svg+xml</dc:format><dc:type
           rdf:resource="http://purl.org/dc/dcmitype/StillImage" /></cc:Work></rdf:RDF></metadata><defs
     id="defs6"><clipPath
       id="clipPath18"
       clipPathUnits="userSpaceOnUse"><path
         id="path16"
         d="m 0,0.193 h 348.5 v 180.5 H 0 Z" /></clipPath><radialGradient
       id="radialGradient28"
       spreadMethod="pad"
       gradientTransform="matrix(173.45534,0,0,-173.45534,174.25,90.442383)"
       gradientUnits="userSpaceOnUse"
       r="1"
       cy="0"
       cx="0"
       fy="0"
       fx="0"><stop
         id="stop24"
         offset="0"
         style="stop-opacity:1;stop-color:#6c3b87" /><stop
         id="stop26"
         offset="1"
         style="stop-opacity:1;stop-color:#532969" /></radialGradient><clipPath
       id="clipPath42"
       clipPathUnits="userSpaceOnUse"><path
         id="path40"
         d="M 0,180.692 H 348.5 V 0 H 0 Z" /></clipPath></defs><g
     transform="matrix(1.3333333,0,0,-1.3333333,0,240.92267)"
     id="g10"><g
       id="g12"><g
         clip-path="url(#clipPath18)"
         id="g14"><g
           id="g20"><g
             id="g22"><path
               id="path30"
               style="fill:url(#radialGradient28);stroke:none"
               d="m 0,0.193 h 348.5 v 180.5 H 0 Z" /></g></g></g></g><g
       transform="translate(219.1538,145.2783)"
       id="g32"><path
         id="path34"
         style="fill:#ffffff;fill-opacity:1;fill-rule:nonzero;stroke:none"
         d="m 0,0 v 0.016 h -57.455 v -100.294 h 11.892 v 44.846 10.602 34.243 h 45.516 v -7.275 h 10.603 v 7.259 h 20.631 v -79.089 -10.602 h 11.758 l 0.134,10.602 v 79.089 h 20.776 v -7.259 H 74.457 V 0 Z" /></g><g
       id="g36"><g
         clip-path="url(#clipPath42)"
         id="g38"><g
           transform="translate(193.6577,109.7666)"
           id="g44"><path
             id="path46"
             style="fill:#eed530;fill-opacity:1;fill-rule:nonzero;stroke:none"
             d="M 0,0 C -0.608,0 -1.102,0.492 -1.102,1.1 -1.102,1.709 -0.608,2.201 0,2.201 0.608,2.201 1.101,1.709 1.101,1.1 1.101,0.492 0.608,0 0,0 m 2.242,1.1 c 0,1.238 -1.004,2.242 -2.242,2.242 -1.238,0 -2.242,-1.004 -2.242,-2.242 0,-0.965 0.613,-1.787 1.47,-2.102 V -4.33 l -2.809,-2.809 1.092,-1.091 3.26,3.261 -0.003,0.003 h 0.003 v 3.964 C 1.629,-0.687 2.242,0.135 2.242,1.1" /></g><g
           transform="translate(201.6562,108)"
           id="g48"><path
             id="path50"
             style="fill:#eed530;fill-opacity:1;fill-rule:nonzero;stroke:none"
             d="m 0,0 c -0.852,0 -1.543,0.691 -1.543,1.543 0,0.853 0.691,1.544 1.543,1.544 0.853,0 1.544,-0.691 1.543,-1.544 C 1.544,0.691 0.853,0 0,0 m 0,3.785 c -1.238,10e-4 -2.242,-1.004 -2.242,-2.242 0,-0.336 0.079,-0.651 0.212,-0.938 l -8.507,-8.507 1.092,-1.09 8.506,8.506 C -0.652,-0.619 -0.336,-0.699 0,-0.699 1.238,-0.697 2.242,0.307 2.242,1.543 2.242,2.781 1.238,3.786 0,3.785" /></g><g
           transform="translate(193.2949,96.5176)"
           id="g52"><path
             id="path54"
             style="fill:#eed530;fill-opacity:1;fill-rule:nonzero;stroke:none"
             d="M 0,0 -1.092,1.091 2.169,4.351 3.261,3.259 Z" /></g><g
           transform="translate(210.5347,98.6768)"
           id="g56"><path
             id="path58"
             style="fill:#eed530;fill-opacity:1;fill-rule:nonzero;stroke:none"
             d="m 0,0 c -0.802,0 -1.453,0.65 -1.453,1.453 0,0.801 0.651,1.451 1.453,1.451 0.801,0 1.452,-0.65 1.452,-1.451 C 1.452,0.65 0.801,0 0,0 m 0,3.693 c -0.966,0 -1.783,-0.613 -2.098,-1.47 H -15.047 V 0.681 H -2.098 C -1.782,-0.176 -0.966,-0.79 0,-0.79 c 1.238,0 2.242,1.003 2.242,2.243 0,1.237 -1.004,2.24 -2.242,2.24" /></g><g
           transform="translate(193.2949,95.4795)"
           id="g60"><path
             id="path62"
             style="fill:#eed530;fill-opacity:1;fill-rule:nonzero;stroke:none"
             d="m 0,0 -1.092,-1.092 3.26,-3.26 1.093,1.092 z" /></g><g
           transform="translate(197.6011,89.3408)"
           id="g64"><path
             id="path66"
             style="fill:#eed530;fill-opacity:1;fill-rule:nonzero;stroke:none"
             d="m 0,0 c -0.607,0 -1.101,0.494 -1.101,1.102 0,0.607 0.494,1.099 1.101,1.099 0.608,0 1.102,-0.492 1.102,-1.099 C 1.102,0.494 0.608,0 0,0 m 0.001,3.344 c -1.239,0 -2.242,-1.004 -2.242,-2.242 0,-1.239 1.003,-2.243 2.242,-2.243 1.238,0 2.242,1.004 2.242,2.243 0,1.238 -1.004,2.242 -2.242,2.242" /></g><path
           id="path68"
           style="fill:#eed530;fill-opacity:1;fill-rule:nonzero;stroke:none"
           d="m 146.688,103.08 h 44.479 v -1.545 h -44.479 z" /><g
           transform="translate(120.3872,74.6182)"
           id="g70"><path
             id="path72"
             style="fill:#eed530;fill-opacity:1;fill-rule:nonzero;stroke:none"
             d="M 0,0 -1.089,1.093 26.28,28.462 27.371,27.371 Z" /></g><g
           transform="translate(105.8452,91.3535)"
           id="g74"><path
             id="path76"
             style="fill:#eed530;fill-opacity:1;fill-rule:nonzero;stroke:none"
             d="m 0,0 -0.546,-1.637 15.098,-15.098 1.089,1.094 z" /></g><path
           id="path78"
           style="fill:#eed530;fill-opacity:1;fill-rule:nonzero;stroke:none"
           d="m 147.758,100.553 h 44.445 v -1.545 h -44.445 z" /><g
           transform="translate(121.0225,71.6465)"
           id="g80"><path
             id="path82"
             style="fill:#eed530;fill-opacity:1;fill-rule:nonzero;stroke:none"
             d="m 0,0 -1.089,1.093 27.813,27.813 1.09,-1.091 z" /></g><g
           transform="translate(104.9492,88.668)"
           id="g84"><path
             id="path86"
             style="fill:#eed530;fill-opacity:1;fill-rule:nonzero;stroke:none"
             d="m 0,0 -0.546,-1.637 15.994,-15.995 1.088,1.095 z" /></g><path
           id="path88"
           style="fill:#eed530;fill-opacity:1;fill-rule:nonzero;stroke:none"
           d="m 148.837,98.063 h 44.444 v -1.545 h -44.444 z" /><g
           transform="translate(120.376,67.3955)"
           id="g90"><path
             id="path92"
             style="fill:#eed530;fill-opacity:1;fill-rule:nonzero;stroke:none"
             d="m 0,0 -1.089,1.093 29.573,29.574 1.091,-1.091 z" /></g><g
           transform="translate(104.0337,85.9238)"
           id="g94"><path
             id="path96"
             style="fill:#eed530;fill-opacity:1;fill-rule:nonzero;stroke:none"
             d="m 0,0 -0.546,-1.638 16.394,-16.393 1.087,1.094 z" /></g><path
           id="path98"
           style="fill:#eed530;fill-opacity:1;fill-rule:nonzero;stroke:none"
           d="m 149.951,95.479 h 43.33 v -1.545 h -43.33 z" /><g
           transform="translate(120.4463,63.8135)"
           id="g100"><path
             id="path102"
             style="fill:#eed530;fill-opacity:1;fill-rule:nonzero;stroke:none"
             d="m 0,0 -1.089,1.093 30.572,30.573 1.091,-1.091 z" /></g><g
           transform="translate(103.1265,83.2051)"
           id="g104"><path
             id="path106"
             style="fill:#eed530;fill-opacity:1;fill-rule:nonzero;stroke:none"
             d="m 0,0 -0.546,-1.637 17.817,-17.816 1.087,1.095 z" /></g><g
           transform="translate(120.3716,145.2939)"
           id="g108"><path
             id="path110"
             style="fill:#ffffff;fill-opacity:1;fill-rule:nonzero;stroke:none"
             d="m 0,0 h -14.041 l -33.527,-100.294 h 11.892 l 27.796,85.25 h 1.718 l 27.51,-85.25 h 12.465 z" /></g></g></g></g></svg>