<svg id="Layer_1" data-name="Layer 1" xmlns="http://www.w3.org/2000/svg" viewBox="0 0 79.37 36.45"><defs><style>.cls-1{fill:#004f9f;}.cls-2{fill:#a2c617;}.cls-3{fill:#fff;}.cls-4{fill:none;}</style></defs><title>OP logo_H_CMYK</title><rect class="cls-1" width="79.37" height="36.45"/><path class="cls-2" d="M280.13,420.92a6.21,6.21,0,1,1-8.32-6.06,3.5,3.5,0,0,0-1.4.53,5.85,5.85,0,0,0-2.23,2.37,6.46,6.46,0,1,0,12.2,3.17Z" transform="translate(-258.93 -402.41)"/><path class="cls-2" d="M281,418.57a7,7,0,0,0-.31-.86l-.3.13a6.65,6.65,0,0,1,.3.82,7,7,0,1,1-12.39-2.11,4.26,4.26,0,0,0-1.12,1.64,6.77,6.77,0,0,0-.34,4.31A7.35,7.35,0,1,0,281,418.57Z" transform="translate(-258.93 -402.41)"/><path class="cls-2" d="M280.92,416.16a8.32,8.32,0,0,0-1.64-1.85l-.26.31a7.88,7.88,0,0,1,1.56,1.76,7.94,7.94,0,1,1-14.47,2.93,5,5,0,0,0-.31,2.46,7.68,7.68,0,0,0,2.27,4.88,8.34,8.34,0,0,0,12.86-10.48Z" transform="translate(-258.93 -402.41)"/><path class="cls-2" d="M271.44,429.82h0a9.45,9.45,0,0,0,5.29-18.14l-.52-.15-.12.48.5.14a9,9,0,1,1-11.29,11,5.78,5.78,0,0,0,1,2.81A8.78,8.78,0,0,0,271.44,429.82Z" transform="translate(-258.93 -402.41)"/><path class="cls-2" d="M285.39,417.22a12,12,0,0,0-19-5.73l-.18.14.42.5.17-.14a11.37,11.37,0,1,1,1.77,18.88,7.39,7.39,0,0,0,3.58,1.63,11.13,11.13,0,0,0,8.39-1.61h0a12,12,0,0,0,4.87-13.68Z" transform="translate(-258.93 -402.41)"/><path class="cls-2" d="M275.14,430.74a10.13,10.13,0,0,1-9.41-4.1,6.6,6.6,0,0,0,2.21,2.67,9.73,9.73,0,0,0,3.11,1.62,10,10,0,0,0,4.15.37h0a10.69,10.69,0,1,0-3.32-21.1l-.19,0,.12.56.18,0A10.11,10.11,0,0,1,280.91,428,10.32,10.32,0,0,1,275.14,430.74Z" transform="translate(-258.93 -402.41)"/><path class="cls-3" d="M290.57,425.36h-.62v1.82h-.62V423h1.25a1.17,1.17,0,1,1,0,2.33Zm-.11-1.8h-.51v1.26h.51a.64.64,0,1,0,0-1.26Z" transform="translate(-258.93 -402.41)"/><path class="cls-3" d="M294.79,427.26a2.16,2.16,0,1,1,2.2-2.16A2.15,2.15,0,0,1,294.79,427.26Zm0-3.77a1.61,1.61,0,1,0,1.56,1.61A1.56,1.56,0,0,0,294.79,423.49Z" transform="translate(-258.93 -402.41)"/><path class="cls-3" d="M298.06,427.18V423h.63v3.61h1.83v.54Z" transform="translate(-258.93 -402.41)"/><path class="cls-3" d="M302.68,425.27v1.91h-.62v-1.91L300.48,423h.69l.83,1.17.39.59h0c.12-.18.29-.42.4-.59l.83-1.17h.64Z" transform="translate(-258.93 -402.41)"/><path class="cls-3" d="M306.57,423.57v3.61h-.63v-3.61h-1.21V423h3.18v.54Z" transform="translate(-258.93 -402.41)"/><path class="cls-3" d="M308.83,427.18V423h2.24v.54h-1.61v1.26h1.35v.54h-1.35v1.27h1.84v.54Z" transform="translate(-258.93 -402.41)"/><path class="cls-3" d="M315.43,423.77a2.11,2.11,0,0,0-1-.28,1.61,1.61,0,1,0,0,3.22,2.25,2.25,0,0,0,1.15-.26l-.13.61a2.21,2.21,0,0,1-1.09.2,2.16,2.16,0,1,1,0-4.31,2.48,2.48,0,0,1,1.22.27Z" transform="translate(-258.93 -402.41)"/><path class="cls-3" d="M319.39,427.18v-1.82h-2.14v1.82h-.63V423h.63v1.8h2.14V423H320v4.15Z" transform="translate(-258.93 -402.41)"/><path class="cls-3" d="M324.79,427.27l-1.95-2.13c-.31-.34-.67-.76-1-1.09h0c0,.38,0,.73,0,1v2.08h-.63V423h.43l1.78,2c.24.27.62.68.87,1h0c0-.32,0-.68,0-1v-2H325v4.24Z" transform="translate(-258.93 -402.41)"/><path class="cls-3" d="M326.32,427.18V423h.63v4.15Z" transform="translate(-258.93 -402.41)"/><path class="cls-3" d="M331.47,423.77a2.12,2.12,0,0,0-1-.28,1.61,1.61,0,1,0,0,3.22,2.24,2.24,0,0,0,1.15-.26l-.13.61a2.21,2.21,0,0,1-1.09.2,2.16,2.16,0,1,1,0-4.31,2.47,2.47,0,0,1,1.22.27Z" transform="translate(-258.93 -402.41)"/><path class="cls-3" d="M293.36,417.26A4.25,4.25,0,1,1,297.7,413,4.24,4.24,0,0,1,293.36,417.26Zm0-7.43a3.18,3.18,0,1,0,3.08,3.17A3.07,3.07,0,0,0,293.36,409.83Z" transform="translate(-258.93 -402.41)"/><path class="cls-3" d="M302.51,410v7.12h-1.25V410h-2.63v-1.07h6.51V410Z" transform="translate(-258.93 -402.41)"/><path class="cls-3" d="M311.44,417.11l-.89-2.12h-3.18l-.88,2.12h-1.22l3.49-8.3h.45l3.49,8.3ZM309.33,412a9.63,9.63,0,0,1-.35-1h0a7.27,7.27,0,0,1-.35,1l-.81,2h2.34Z" transform="translate(-258.93 -402.41)"/><path class="cls-3" d="M318.33,417.26a4.26,4.26,0,1,1-.08-8.51,5,5,0,0,1,2.64.65l-.23,1.08a4.3,4.3,0,0,0-2.27-.66,3.14,3.14,0,0,0-3.3,3.2,3.1,3.1,0,0,0,3.31,3.16,3.05,3.05,0,0,0,1.73-.42v-1.71h-1.89v-1h3.07v3.32A4.6,4.6,0,0,1,318.33,417.26Z" transform="translate(-258.93 -402.41)"/><path class="cls-3" d="M327.69,417.26A4.25,4.25,0,1,1,332,413,4.24,4.24,0,0,1,327.69,417.26Zm0-7.43a3.18,3.18,0,1,0,3.08,3.17A3.07,3.07,0,0,0,327.69,409.83Z" transform="translate(-258.93 -402.41)"/><rect class="cls-3" x="30.21" y="17.57" width="42.64" height="0.34"/><path class="cls-3" d="M290.37,429.92v2.42h-.28v-2.42h-.92v-.24h2.12v.24Z" transform="translate(-258.93 -402.41)"/><path class="cls-3" d="M292.79,431.24l-.16.15h-1.27a.73.73,0,0,0,.75.75.94.94,0,0,0,.59-.19l-.07.29a1,1,0,0,1-.55.13,1,1,0,0,1-1-1,1,1,0,0,1,.92-1,.73.73,0,0,1,.79.71A.66.66,0,0,1,292.79,431.24Zm-.77-.61a.68.68,0,0,0-.63.54h1.15a.29.29,0,0,0,0-.05A.5.5,0,0,0,292,430.64Z" transform="translate(-258.93 -402.41)"/><path class="cls-3" d="M295.71,432.34l-1.19-1.28v1.28h-.28v-2.67h.28V431l1.16-1.28H296l-1.2,1.32,1.25,1.35Z" transform="translate(-258.93 -402.41)"/><path class="cls-3" d="M297.71,432.34v-.23a.69.69,0,0,1-.62.27.66.66,0,0,1-.72-.66v-1.28h.26v1.25c0,.26.19.45.52.45a.48.48,0,0,0,.54-.45v-1.25h.26v1.89Z" transform="translate(-258.93 -402.41)"/><path class="cls-3" d="M299.42,430.65a.67.67,0,0,0-.67.77v.93h-.26v-1.89h.25v.36a.65.65,0,0,1,.66-.39l.05.23Z" transform="translate(-258.93 -402.41)"/><path class="cls-3" d="M301,432.38a.38.38,0,0,1-.28-.29.63.63,0,0,1-.55.29.57.57,0,0,1-.61-.56.6.6,0,0,1,.61-.59l.51-.05V431c0-.23-.16-.38-.45-.38a1,1,0,0,0-.5.14l-.05-.22a1,1,0,0,1,.57-.15.63.63,0,0,1,.7.63v.87a.29.29,0,0,0,.23.31Zm-.33-1-.46,0a.38.38,0,0,0-.39.37.34.34,0,0,0,.36.33.51.51,0,0,0,.5-.49Z" transform="translate(-258.93 -402.41)"/><path class="cls-3" d="M305.24,432.34l-.11-1.38c0-.23,0-.47,0-.69h0c-.09.22-.22.49-.33.71l-.68,1.4H304l-.68-1.4c-.1-.21-.23-.47-.33-.71h0c0,.22,0,.48,0,.69l-.11,1.38h-.25l.21-2.67h.18l.74,1.5c.12.24.24.5.35.75h0c.1-.24.22-.49.34-.75l.73-1.5h.18l.22,2.67Z" transform="translate(-258.93 -402.41)"/><path class="cls-3" d="M307.33,432.38a.38.38,0,0,1-.28-.29.63.63,0,0,1-.55.29.57.57,0,0,1-.61-.56.6.6,0,0,1,.61-.59l.51-.05V431c0-.23-.16-.38-.45-.38a1,1,0,0,0-.5.14l-.05-.22a1,1,0,0,1,.57-.15.63.63,0,0,1,.7.63v.87a.29.29,0,0,0,.23.31Zm-.33-1-.47,0a.38.38,0,0,0-.39.37.34.34,0,0,0,.36.33.51.51,0,0,0,.5-.49Z" transform="translate(-258.93 -402.41)"/><path class="cls-3" d="M308.84,430.67h-.62v1.21a.26.26,0,0,0,.28.27.52.52,0,0,0,.22,0l-.06.25-.18,0a.48.48,0,0,1-.52-.51v-1.2h-.39v-.22H308V430l.26-.14v.55h.68Z" transform="translate(-258.93 -402.41)"/><path class="cls-3" d="M310.56,432.38a.38.38,0,0,1-.29-.29.63.63,0,0,1-.55.29.57.57,0,0,1-.61-.56.6.6,0,0,1,.61-.59l.5-.05V431c0-.23-.16-.38-.45-.38a1,1,0,0,0-.5.14l-.06-.22a1.05,1.05,0,0,1,.57-.15.63.63,0,0,1,.7.63v.87a.29.29,0,0,0,.23.31Zm-.33-1-.46,0a.38.38,0,0,0-.39.37.34.34,0,0,0,.36.33.51.51,0,0,0,.5-.49Z" transform="translate(-258.93 -402.41)"/><path class="cls-3" d="M312.08,430.67h-.62v1.21a.26.26,0,0,0,.28.27.51.51,0,0,0,.22,0l-.06.25-.18,0a.48.48,0,0,1-.52-.51v-1.2h-.39v-.22h.39V430l.26-.14v.55h.68Z" transform="translate(-258.93 -402.41)"/><path class="cls-3" d="M314.74,432.34v-1.25c0-.26-.19-.45-.52-.45a.48.48,0,0,0-.54.45v1.25h-.26v-1.89h.24v.23a.69.69,0,0,1,.62-.27.66.66,0,0,1,.72.66v1.28Z" transform="translate(-258.93 -402.41)"/><path class="cls-3" d="M318.64,432.34l-.9-.92v.92h-.26v-3h.26v2l.88-.9h.32l-.89.93.94,1Z" transform="translate(-258.93 -402.41)"/><path class="cls-3" d="M322.54,432.39a1.38,1.38,0,1,1,1.4-1.38A1.37,1.37,0,0,1,322.54,432.39Zm0-2.52a1.14,1.14,0,1,0,1.11,1.13A1.1,1.1,0,0,0,322.54,429.87Z" transform="translate(-258.93 -402.41)"/><path class="cls-3" d="M325.44,430.67h-.62v1.21a.26.26,0,0,0,.28.27.51.51,0,0,0,.22,0l-.06.25-.18,0a.48.48,0,0,1-.52-.51v-1.2h-.39v-.22h.39V430l.26-.14v.55h.68Z" transform="translate(-258.93 -402.41)"/><path class="cls-3" d="M327.16,432.38a.37.37,0,0,1-.28-.29.63.63,0,0,1-.55.29.57.57,0,0,1-.61-.56.6.6,0,0,1,.61-.59l.51-.05V431c0-.23-.16-.38-.45-.38a1,1,0,0,0-.5.14l-.05-.22a1,1,0,0,1,.57-.15.63.63,0,0,1,.7.63v.87a.29.29,0,0,0,.23.31Zm-.33-1-.46,0a.38.38,0,0,0-.39.37.34.34,0,0,0,.36.33.51.51,0,0,0,.5-.49Z" transform="translate(-258.93 -402.41)"/><path class="cls-3" d="M328.37,433.31c-.5,0-.84-.28-.84-.65a.59.59,0,0,1,.45-.58l-.23-.21a.38.38,0,0,1,.26-.3.6.6,0,0,1-.35-.54.64.64,0,0,1,.69-.63.89.89,0,0,1,.24,0,.77.77,0,0,0,.24,0,.65.65,0,0,0,.29-.07l.05.22a.69.69,0,0,1-.26.06.51.51,0,0,1,.14.35.64.64,0,0,1-.69.63c-.21,0-.32.07-.32.15a.33.33,0,0,0,.17.14l.49.17c.32.11.51.28.51.59S328.87,433.31,328.37,433.31Zm.25-1-.38-.12a.45.45,0,0,0-.47.44c0,.22.22.43.6.43s.59-.2.59-.39S328.83,432.4,328.62,432.34Zm-.25-1.71a.41.41,0,1,0,.44.41A.43.43,0,0,0,328.37,430.63Z" transform="translate(-258.93 -402.41)"/><path class="cls-3" d="M330.45,432.38a1,1,0,1,1,1-1A1,1,0,0,1,330.45,432.38Zm0-1.74a.76.76,0,1,0,.73.76A.73.73,0,0,0,330.45,430.64Z" transform="translate(-258.93 -402.41)"/><path class="cls-3" d="M312.55,432.34v-1.89h.27v1.89Zm.13-2.57a.16.16,0,1,0,.16.16A.16.16,0,0,0,312.68,429.77Z" transform="translate(-258.93 -402.41)"/><path class="cls-3" d="M315.6,432.34v-1.89h.27v1.89Zm.13-2.57a.16.16,0,1,0,.16.16A.16.16,0,0,0,315.73,429.77Z" transform="translate(-258.93 -402.41)"/><path class="cls-3" d="M319.35,432.34v-1.89h.27v1.89Zm.13-2.57a.16.16,0,1,0,0,.32.16.16,0,0,0,0-.32Z" transform="translate(-258.93 -402.41)"/><path class="cls-4" d="M301.25,406.72a2.16,2.16,0,1,1,2.2-2.16A2.15,2.15,0,0,1,301.25,406.72Zm0-3.77a1.61,1.61,0,1,0,1.56,1.61A1.55,1.55,0,0,0,301.25,403Z" transform="translate(-258.93 -402.41)"/><path class="cls-4" d="M301.25,408.88a2.16,2.16,0,1,1,2.2-2.16A2.15,2.15,0,0,1,301.25,408.88Zm0-3.77a1.61,1.61,0,1,0,1.56,1.61A1.55,1.55,0,0,0,301.25,405.11Z" transform="translate(-258.93 -402.41)"/><path class="cls-4" d="M301.25,436.7a2.16,2.16,0,1,1,2.2-2.16A2.15,2.15,0,0,1,301.25,436.7Zm0-3.77a1.61,1.61,0,1,0,1.56,1.61A1.55,1.55,0,0,0,301.25,432.93Z" transform="translate(-258.93 -402.41)"/><path class="cls-4" d="M301.25,438.86a2.16,2.16,0,1,1,2.2-2.16A2.15,2.15,0,0,1,301.25,438.86Zm0-3.77a1.61,1.61,0,1,0,1.56,1.61A1.55,1.55,0,0,0,301.25,435.09Z" transform="translate(-258.93 -402.41)"/><path class="cls-4" d="M263.24,420.48a2.16,2.16,0,1,1-2.16-2.2A2.15,2.15,0,0,1,263.24,420.48Zm-3.77,0a1.61,1.61,0,1,0,1.61-1.56A1.55,1.55,0,0,0,259.47,420.48Z" transform="translate(-258.93 -402.41)"/><path class="cls-4" d="M265.39,420.48a2.16,2.16,0,1,1-2.16-2.2A2.15,2.15,0,0,1,265.39,420.48Zm-3.77,0a1.61,1.61,0,1,0,1.61-1.56A1.55,1.55,0,0,0,261.63,420.48Z" transform="translate(-258.93 -402.41)"/><path class="cls-4" d="M336.14,420.48a2.16,2.16,0,1,1-2.16-2.2A2.15,2.15,0,0,1,336.14,420.48Zm-3.77,0a1.61,1.61,0,1,0,1.61-1.56A1.55,1.55,0,0,0,332.37,420.48Z" transform="translate(-258.93 -402.41)"/><path class="cls-4" d="M338.3,420.48a2.16,2.16,0,1,1-2.16-2.2A2.15,2.15,0,0,1,338.3,420.48Zm-3.77,0a1.61,1.61,0,1,0,1.61-1.56A1.55,1.55,0,0,0,334.53,420.48Z" transform="translate(-258.93 -402.41)"/></svg>